<svg class="main-svg" xmlns="http://www.w3.org/2000/svg" xmlns:xlink="http://www.w3.org/1999/xlink" width="500" height="400" style="" viewBox="0 0 500 400"><rect x="0" y="0" width="500" height="400" style="fill: rgb(0, 0, 0); fill-opacity: 0;"/><defs id="defs-985857"><g class="clips"><clipPath id="clip985857polar-for-traces"><path d="M170,0A170,170 0,1,0 -170,-2.0818995585505004e-14A170,170 0,1,0 170,4.163799117101001e-14Z" transform="translate(170,170)"/></clipPath></g><g class="gradients"/><g class="patterns"/></defs><g class="bglayer"/><g class="layer-below"><g class="imagelayer"/><g class="shapelayer"/></g><g class="cartesianlayer"/><g class="polarlayer"><g class="polar"><g class="polarsublayer draglayer"/><g class="polarsublayer plotbg"><path d="M170,0A170,170 0,1,0 -170,-2.0818995585505004e-14A170,170 0,1,0 170,4.163799117101001e-14Z" transform="translate(250,210)" style="fill: rgb(255, 255, 255); fill-opacity: 0;"/></g><g class="polarsublayer backplot"><g class="maplayer"/></g><g class="polarsublayer angular-grid" style="fill: none;"><path class="angularaxisgrid" d="M250,210L420,210" style="stroke: rgb(80, 103, 132); stroke-opacity: 1; stroke-width: 1px;"/><path class="angularaxisgrid" d="M250,210L407.05952052691873,144.94381649793473" style="stroke: rgb(80, 103, 132); stroke-opacity: 1; stroke-width: 1px;"/><path class="angularaxisgrid" d="M250,210L370.2081528017131,89.79184719828693" style="stroke: rgb(80, 103, 132); stroke-opacity: 1; stroke-width: 1px;"/><path class="angularaxisgrid" d="M250,210L315.05618350206527,52.94047947308127" style="stroke: rgb(80, 103, 132); stroke-opacity: 1; stroke-width: 1px;"/><path class="angularaxisgrid" d="M250,210L250,40" style="stroke: rgb(80, 103, 132); stroke-opacity: 1; stroke-width: 1px;"/><path class="angularaxisgrid" d="M250,210L184.94381649793473,52.94047947308127" style="stroke: rgb(80, 103, 132); stroke-opacity: 1; stroke-width: 1px;"/><path class="angularaxisgrid" d="M250,210L129.79184719828692,89.79184719828692" style="stroke: rgb(80, 103, 132); stroke-opacity: 1; stroke-width: 1px;"/><path class="angularaxisgrid" d="M250,210L92.94047947308127,144.94381649793473" style="stroke: rgb(80, 103, 132); stroke-opacity: 1; stroke-width: 1px;"/><path class="angularaxisgrid" d="M250,210L80,209.99999999999997" style="stroke: rgb(80, 103, 132); stroke-opacity: 1; stroke-width: 1px;"/><path class="angularaxisgrid" d="M250,210L92.94047947308124,275.0561835020652" style="stroke: rgb(80, 103, 132); stroke-opacity: 1; stroke-width: 1px;"/><path class="angularaxisgrid" d="M250,210L129.7918471982869,330.2081528017131" style="stroke: rgb(80, 103, 132); stroke-opacity: 1; stroke-width: 1px;"/><path class="angularaxisgrid" d="M250,210L184.94381649793465,367.05952052691873" style="stroke: rgb(80, 103, 132); stroke-opacity: 1; stroke-width: 1px;"/><path class="angularaxisgrid" d="M250,210L249.99999999999997,380" style="stroke: rgb(80, 103, 132); stroke-opacity: 1; stroke-width: 1px;"/><path class="angularaxisgrid" d="M250,210L315.0561835020653,367.05952052691873" style="stroke: rgb(80, 103, 132); stroke-opacity: 1; stroke-width: 1px;"/><path class="angularaxisgrid" d="M250,210L370.208152801713,330.20815280171314" style="stroke: rgb(80, 103, 132); stroke-opacity: 1; stroke-width: 1px;"/><path class="angularaxisgrid" d="M250,210L407.05952052691873,275.0561835020654" style="stroke: rgb(80, 103, 132); stroke-opacity: 1; stroke-width: 1px;"/></g><g class="polarsublayer radial-grid" transform="translate(250,210)" style="fill: none;"><path class="xgrid" d="M25.22,0A25.22,25.22 0,1,0 -25.22,-3.0885592274496245e-15A25.22,25.22 0,1,0 25.22,6.177118454899249e-15Z" style="stroke: rgb(80, 103, 132); stroke-opacity: 1; stroke-width: 1px;"/><path class="xgrid" d="M50.44,0A50.44,50.44 0,1,0 -50.44,-6.177118454899249e-15A50.44,50.44 0,1,0 50.44,1.2354236909798498e-14Z" style="stroke: rgb(80, 103, 132); stroke-opacity: 1; stroke-width: 1px;"/><path class="xgrid" d="M75.66,0A75.66,75.66 0,1,0 -75.66,-9.265677682348874e-15A75.66,75.66 0,1,0 75.66,1.853135536469775e-14Z" style="stroke: rgb(80, 103, 132); stroke-opacity: 1; stroke-width: 1px;"/><path class="xgrid" d="M100.89,0A100.89,100.89 0,1,0 -100.89,-1.2355461556597646e-14A100.89,100.89 0,1,0 100.89,2.4710923113195293e-14Z" style="stroke: rgb(80, 103, 132); stroke-opacity: 1; stroke-width: 1px;"/><path class="xgrid" d="M126.11,0A126.11,126.11 0,1,0 -126.11,-1.544402078404727e-14A126.11,126.11 0,1,0 126.11,3.088804156809454e-14Z" style="stroke: rgb(80, 103, 132); stroke-opacity: 1; stroke-width: 1px;"/><path class="xgrid" d="M151.33,0A151.33,151.33 0,1,0 -151.33,-1.8532580011496897e-14A151.33,151.33 0,1,0 151.33,3.7065160022993794e-14Z" style="stroke: rgb(80, 103, 132); stroke-opacity: 1; stroke-width: 1px;"/></g><g class="polarsublayer frontplot" transform="translate(80,40)"><g class="barlayer"/><g class="scatterlayer"><g class="trace scatter trace5aeed1" style="stroke-miterlimit: 2; opacity: 1;"><g class="fills" clip-path="url(#clip985857polar-for-traces)"><g><path class="js-fill" d="M232.96,170L298.48,116.78L257.53,82.47L229.45,26.47L170,40L119.08,47.06L63.95,63.95L16.41,106.38L44.6,170L56.8,216.89L67.09,272.91L114.26,304.56L170,293.27L223.13,298.27L249.12,249.12L262.11,208.15Z" style="fill: rgb(99, 110, 250); fill-opacity: 0.5; stroke-width: 0;"/></g></g><g class="errorbars"/><g class="lines"><path class="js-line" d="M232.96,170L298.48,116.78L257.53,82.47L229.45,26.47L170,40L119.08,47.06L63.95,63.95L16.41,106.38L44.6,170L56.8,216.89L67.09,272.91L114.26,304.56L170,293.27L223.13,298.27L249.12,249.12L262.11,208.15" clip-path="url(#clip985857polar-for-traces)" style="vector-effect: none; fill: none; stroke: rgb(99, 110, 250); stroke-opacity: 1; stroke-width: 2px; opacity: 1;"/></g><g class="points"><path class="point" transform="translate(232.96,170)" d="M3,0A3,3 0 1,1 0,-3A3,3 0 0,1 3,0Z" style="opacity: 1; stroke-width: 0px; fill: rgb(99, 110, 250); fill-opacity: 1;"/><path class="point" transform="translate(298.48,116.78)" d="M3,0A3,3 0 1,1 0,-3A3,3 0 0,1 3,0Z" style="opacity: 1; stroke-width: 0px; fill: rgb(99, 110, 250); fill-opacity: 1;"/><path class="point" transform="translate(257.53,82.47)" d="M3,0A3,3 0 1,1 0,-3A3,3 0 0,1 3,0Z" style="opacity: 1; stroke-width: 0px; fill: rgb(99, 110, 250); fill-opacity: 1;"/><path class="point" transform="translate(229.45,26.47)" d="M3,0A3,3 0 1,1 0,-3A3,3 0 0,1 3,0Z" style="opacity: 1; stroke-width: 0px; fill: rgb(99, 110, 250); fill-opacity: 1;"/><path class="point" transform="translate(170,40)" d="M3,0A3,3 0 1,1 0,-3A3,3 0 0,1 3,0Z" style="opacity: 1; stroke-width: 0px; fill: rgb(99, 110, 250); fill-opacity: 1;"/><path class="point" transform="translate(119.08,47.06)" d="M3,0A3,3 0 1,1 0,-3A3,3 0 0,1 3,0Z" style="opacity: 1; stroke-width: 0px; fill: rgb(99, 110, 250); fill-opacity: 1;"/><path class="point" transform="translate(63.95,63.95)" d="M3,0A3,3 0 1,1 0,-3A3,3 0 0,1 3,0Z" style="opacity: 1; stroke-width: 0px; fill: rgb(99, 110, 250); fill-opacity: 1;"/><path class="point" transform="translate(16.41,106.38)" d="M3,0A3,3 0 1,1 0,-3A3,3 0 0,1 3,0Z" style="opacity: 1; stroke-width: 0px; fill: rgb(99, 110, 250); fill-opacity: 1;"/><path class="point" transform="translate(44.6,170)" d="M3,0A3,3 0 1,1 0,-3A3,3 0 0,1 3,0Z" style="opacity: 1; stroke-width: 0px; fill: rgb(99, 110, 250); fill-opacity: 1;"/><path class="point" transform="translate(56.8,216.89)" d="M3,0A3,3 0 1,1 0,-3A3,3 0 0,1 3,0Z" style="opacity: 1; stroke-width: 0px; fill: rgb(99, 110, 250); fill-opacity: 1;"/><path class="point" transform="translate(67.09,272.91)" d="M3,0A3,3 0 1,1 0,-3A3,3 0 0,1 3,0Z" style="opacity: 1; stroke-width: 0px; fill: rgb(99, 110, 250); fill-opacity: 1;"/><path class="point" transform="translate(114.26,304.56)" d="M3,0A3,3 0 1,1 0,-3A3,3 0 0,1 3,0Z" style="opacity: 1; stroke-width: 0px; fill: rgb(99, 110, 250); fill-opacity: 1;"/><path class="point" transform="translate(170,293.27)" d="M3,0A3,3 0 1,1 0,-3A3,3 0 0,1 3,0Z" style="opacity: 1; stroke-width: 0px; fill: rgb(99, 110, 250); fill-opacity: 1;"/><path class="point" transform="translate(223.13,298.27)" d="M3,0A3,3 0 1,1 0,-3A3,3 0 0,1 3,0Z" style="opacity: 1; stroke-width: 0px; fill: rgb(99, 110, 250); fill-opacity: 1;"/><path class="point" transform="translate(249.12,249.12)" d="M3,0A3,3 0 1,1 0,-3A3,3 0 0,1 3,0Z" style="opacity: 1; stroke-width: 0px; fill: rgb(99, 110, 250); fill-opacity: 1;"/><path class="point" transform="translate(262.11,208.15)" d="M3,0A3,3 0 1,1 0,-3A3,3 0 0,1 3,0Z" style="opacity: 1; stroke-width: 0px; fill: rgb(99, 110, 250); fill-opacity: 1;"/></g><g class="text"/></g></g></g><g class="polarsublayer angular-line"><path d="M170,0A170,170 0,1,0 -170,-2.0818995585505004e-14A170,170 0,1,0 170,4.163799117101001e-14Z" transform="translate(250,210)" stroke-width="1" style="fill: none; stroke: rgb(80, 103, 132); stroke-opacity: 1;"/></g><g class="polarsublayer radial-line"><line x1="0" y1="0" x2="170" y2="0" transform="translate(250,210)" stroke-width="1" style="fill: none; stroke: rgb(80, 103, 132); stroke-opacity: 1;"/></g><g class="polarsublayer angular-axis"><g class="angularaxistick"><text text-anchor="start" x="2.9000000000000004" y="4.199999999999999" transform="translate(420,210)" style="font-family: 'Open Sans', verdana, arial, sans-serif; font-size: 12px; fill: rgb(242, 245, 250); fill-opacity: 1; white-space: pre; opacity: 1;">ISTJ</text></g><g class="angularaxistick"><text text-anchor="start" x="2.6792506442827317" y="1.8520718450124272" transform="translate(407.05952052691873,144.94381649793473)" style="font-family: 'Open Sans', verdana, arial, sans-serif; font-size: 12px; fill: rgb(242, 245, 250); fill-opacity: 1; white-space: pre; opacity: 1;">ISTP</text></g><g class="angularaxistick"><text text-anchor="start" x="2.050609665440988" y="-0.7778174593052025" transform="translate(370.2081528017131,89.79184719828693)" style="font-family: 'Open Sans', verdana, arial, sans-serif; font-size: 12px; fill: rgb(242, 245, 250); fill-opacity: 1; white-space: pre; opacity: 1;">ISFJ</text></g><g class="angularaxistick"><text text-anchor="start" x="1.1097819538587608" y="-3.289291106376443" transform="translate(315.05618350206527,52.94047947308127)" style="font-family: 'Open Sans', verdana, arial, sans-serif; font-size: 12px; fill: rgb(242, 245, 250); fill-opacity: 1; white-space: pre; opacity: 1;">ISFP</text></g><g class="angularaxistick"><text text-anchor="middle" x="1.7757378587636624e-16" y="-5.300000000000001" transform="translate(250,40)" style="font-family: 'Open Sans', verdana, arial, sans-serif; font-size: 12px; fill: rgb(242, 245, 250); fill-opacity: 1; white-space: pre; opacity: 1;">INFJ</text></g><g class="angularaxistick"><text text-anchor="end" x="-1.1097819538587603" y="-3.289291106376444" transform="translate(184.94381649793473,52.94047947308127)" style="font-family: 'Open Sans', verdana, arial, sans-serif; font-size: 12px; fill: rgb(242, 245, 250); fill-opacity: 1; white-space: pre; opacity: 1;">INFP</text></g><g class="angularaxistick"><text text-anchor="end" x="-2.0506096654409878" y="-0.7778174593052039" transform="translate(129.79184719828692,89.79184719828692)" style="font-family: 'Open Sans', verdana, arial, sans-serif; font-size: 12px; fill: rgb(242, 245, 250); fill-opacity: 1; white-space: pre; opacity: 1;">INTJ</text></g><g class="angularaxistick"><text text-anchor="end" x="-2.6792506442827317" y="1.8520718450124267" transform="translate(92.94047947308127,144.94381649793473)" style="font-family: 'Open Sans', verdana, arial, sans-serif; font-size: 12px; fill: rgb(242, 245, 250); fill-opacity: 1; white-space: pre; opacity: 1;">INTP</text></g><g class="angularaxistick"><text text-anchor="end" x="-2.9000000000000004" y="4.199999999999998" transform="translate(80,209.99999999999997)" style="font-family: 'Open Sans', verdana, arial, sans-serif; font-size: 12px; fill: rgb(242, 245, 250); fill-opacity: 1; white-space: pre; opacity: 1;">ESTP</text></g><g class="angularaxistick"><text text-anchor="end" x="-2.679250644282732" y="9.58227717878724" transform="translate(92.94047947308124,275.0561835020652)" style="font-family: 'Open Sans', verdana, arial, sans-serif; font-size: 12px; fill: rgb(242, 245, 250); fill-opacity: 1; white-space: pre; opacity: 1;">ESTJ</text></g><g class="angularaxistick"><text text-anchor="end" x="-2.0506096654409887" y="13.505739520663056" transform="translate(129.7918471982869,330.2081528017131)" style="font-family: 'Open Sans', verdana, arial, sans-serif; font-size: 12px; fill: rgb(242, 245, 250); fill-opacity: 1; white-space: pre; opacity: 1;">ESFP</text></g><g class="angularaxistick"><text text-anchor="end" x="-1.109781953858762" y="15.37307545035155" transform="translate(184.94381649793465,367.05952052691873)" style="font-family: 'Open Sans', verdana, arial, sans-serif; font-size: 12px; fill: rgb(242, 245, 250); fill-opacity: 1; white-space: pre; opacity: 1;">ESFJ</text></g><g class="angularaxistick"><text text-anchor="middle" x="-5.327213576290987e-16" y="14.9" transform="translate(249.99999999999997,380)" style="font-family: 'Open Sans', verdana, arial, sans-serif; font-size: 12px; fill: rgb(242, 245, 250); fill-opacity: 1; white-space: pre; opacity: 1;">ENFP</text></g><g class="angularaxistick"><text text-anchor="start" x="1.1097819538587612" y="15.37307545035155" transform="translate(315.0561835020653,367.05952052691873)" style="font-family: 'Open Sans', verdana, arial, sans-serif; font-size: 12px; fill: rgb(242, 245, 250); fill-opacity: 1; white-space: pre; opacity: 1;">ENFJ</text></g><g class="angularaxistick"><text text-anchor="start" x="2.0506096654409878" y="13.50573952066306" transform="translate(370.208152801713,330.20815280171314)" style="font-family: 'Open Sans', verdana, arial, sans-serif; font-size: 12px; fill: rgb(242, 245, 250); fill-opacity: 1; white-space: pre; opacity: 1;">ENTP</text></g><g class="angularaxistick"><text text-anchor="start" x="2.6792506442827313" y="9.58227717878725" transform="translate(407.05952052691873,275.0561835020654)" style="font-family: 'Open Sans', verdana, arial, sans-serif; font-size: 12px; fill: rgb(242, 245, 250); fill-opacity: 1; white-space: pre; opacity: 1;">ENTJ</text></g></g><g class="polarsublayer radial-axis" transform="translate(250,210)"><g class="xtick"><text text-anchor="middle" x="0" y="14.9" transform="" style="font-family: 'Open Sans', verdana, arial, sans-serif; font-size: 12px; fill: rgb(242, 245, 250); fill-opacity: 1; white-space: pre; opacity: 1;">0</text></g><g class="xtick"><text text-anchor="middle" x="0" y="14.9" transform="translate(25.22,0)" style="font-family: 'Open Sans', verdana, arial, sans-serif; font-size: 12px; fill: rgb(242, 245, 250); fill-opacity: 1; white-space: pre; opacity: 1;">0.1</text></g><g class="xtick"><text text-anchor="middle" x="0" y="14.9" transform="translate(50.44,0)" style="font-family: 'Open Sans', verdana, arial, sans-serif; font-size: 12px; fill: rgb(242, 245, 250); fill-opacity: 1; white-space: pre; opacity: 1;">0.2</text></g><g class="xtick"><text text-anchor="middle" x="0" y="14.9" transform="translate(75.66,0)" style="font-family: 'Open Sans', verdana, arial, sans-serif; font-size: 12px; fill: rgb(242, 245, 250); fill-opacity: 1; white-space: pre; opacity: 1;">0.3</text></g><g class="xtick"><text text-anchor="middle" x="0" y="14.9" transform="translate(100.89,0)" style="font-family: 'Open Sans', verdana, arial, sans-serif; font-size: 12px; fill: rgb(242, 245, 250); fill-opacity: 1; white-space: pre; opacity: 1;">0.4</text></g><g class="xtick"><text text-anchor="middle" x="0" y="14.9" transform="translate(126.11,0)" style="font-family: 'Open Sans', verdana, arial, sans-serif; font-size: 12px; fill: rgb(242, 245, 250); fill-opacity: 1; white-space: pre; opacity: 1;">0.5</text></g><g class="xtick"><text text-anchor="middle" x="0" y="14.9" transform="translate(151.33,0)" style="font-family: 'Open Sans', verdana, arial, sans-serif; font-size: 12px; fill: rgb(242, 245, 250); fill-opacity: 1; white-space: pre; opacity: 1;">0.6</text></g></g></g></g><g class="smithlayer"/><g class="ternarylayer"/><g class="geolayer"/><g class="funnelarealayer"/><g class="pielayer"/><g class="iciclelayer"/><g class="treemaplayer"/><g class="sunburstlayer"/><g class="glimages"/><defs id="topdefs-985857"><g class="clips"/></defs><g class="layer-above"><g class="imagelayer"/><g class="shapelayer"/></g><g class="infolayer"><g class="g-gtitle"><text class="gtitle" x="25" y="20" text-anchor="start" dy="0em" style="opacity: 1; font-family: 'Open Sans', verdana, arial, sans-serif; font-size: 17px; fill: rgb(242, 245, 250); fill-opacity: 1; white-space: pre;">MBTI statistics</text></g><g class="g-polartitle"/></g></svg>